# xmcd
#
# Track frame offsets:
#	150
#	30219
#	48705
#	78132
#	102180
#	128076
#	141942
#	159714
#	179399
#	206021
#	232233
#	253137
#	275700
#	293907
#	319518
#	344330
#
# Disc length: 4739 seconds
# Revision: 1
# Processed by: cddbd v1.5.2PL0 Copyright (c) Steve Scherf et al.
# Submitted via: dBpowerAMP V12.0
#
DISCID=ee128110
DTITLE=Sarah Jane Morris - After All These Years
DYEAR=2005
DGENRE=Cantanti pop
TTITLE0=I Get High [Live in Rome]
TTITLE1=The First Time Ever I Saw Your Face [Live in Montreal]
TTITLE2=Fragile [Live in Rome]
TTITLE3=A Horse Named Janis Joplin
TTITLE4=Heaven
TTITLE5=Chelsea Hotel
TTITLE6=Innocence
TTITLE7=Tomorrow
TTITLE8=She's Leaving Home
TTITLE9=Fields Of Wheat
TTITLE10=It's Jesus I Love [Max Sedgley Remix]
TTITLE11=Nothing Comes From Nothing [Atjazz Remix]
TTITLE12=Visions Of You [C:Real]
TTITLE13=Don't Believe [The Republic]
TTITLE14=Don't Go To Strangers [Mornington Lockett]
TTITLE15=On suicide [Happy End]
EXTD=
EXTT0=
EXTT1=
EXTT2=
EXTT3=
EXTT4=
EXTT5=
EXTT6=
EXTT7=
EXTT8=
EXTT9=
EXTT10=
EXTT11=
EXTT12=
EXTT13=
EXTT14=
EXTT15=
PLAYORDER=
